<?xml version="1.0" encoding="utf-8"?>
<!-- Generator: Adobe Illustrator 22.0.1, SVG Export Plug-In . SVG Version: 6.00 Build 0)  -->
<svg version="1.1" id="レイヤー_1" xmlns="http://www.w3.org/2000/svg" xmlns:xlink="http://www.w3.org/1999/xlink" x="0px"
	 y="0px" width="42px" height="31.5px" viewBox="0 0 42 31.5" style="enable-background:new 0 0 42 31.5;" xml:space="preserve">
<style type="text/css">
	.st0{fill:#4D941A;}
</style>
<path class="st0" d="M39.6,8.3c0.3-0.2,0.6-1.2,0.3-1.2c-0.4-0.1-0.1,0.5-1.5,0.3c-3.2-0.3-4.3,1.7-4.8,2.5c-0.6,0.8-1,1.1-1.2,1.1
	c-0.6-0.7-0.9-1.4-0.6-2.1c0.4-1-0.2-1.4-1.1-1.4c-2.8-3.1-6.4-2.7-6.7-3.4c-0.3-0.7,0.6-1.2,0.6-1.6c0.1-0.4-1.6-1.6-2.1-1.6
	c-0.5,0-2.1,1.2-2.1,1.6c0.1,0.4,0.9,0.9,0.6,1.6c-0.3,0.7-3.9,0.3-6.7,3.4c-0.9,0.1-1.5,0.5-1.1,1.4c0.7,1.7-1.9,2.9-3.1,5.9
	c-0.4-0.1-1-1.2-1.1-2.5C9,10.5,7,3.7,4.5,3.6C1.9,3.5,1.1,4.5,1.4,4.9C1.7,5.2,4,4.1,4.6,8.5c0.6,3.9,0.5,14,7,14.7
	c1.5,1.9,3.4,3.2,3.4,4c0.1,1.4,0.1,3.6,7.6,3.6c7.4,0,7.5-2.2,7.6-3.6c0-1.1,3.7-3.4,5-6.8c0.4-0.7,1.3-1.8,2.4-2.5
	c0.1,0.3,0.6,1.1,0.7,0.1c0-0.7,0.5-1.4,1.5-3C40.8,13.3,41.1,9.6,39.6,8.3z M37.7,15.4c-1,1.2-1.8,1.4-2.3,1.5
	c-0.2-1.4-0.7-2.5-1.3-3.4c0.1-1,0.5-2.5,0.6-2.2c0.2,0.3,0.9,0.3,0.7-0.1c-0.2-0.4,0.2-1.6,1.2-2.1c1.4-0.7,2.3,0.8,2.5,1.8
	C39.4,11.9,38.8,14.1,37.7,15.4z"/>
</svg>
