<?xml version="1.0" encoding="utf-8"?>
<!-- Generator: Adobe Illustrator 19.2.1, SVG Export Plug-In . SVG Version: 6.00 Build 0)  -->
<svg version="1.1" id="レイヤー_1" xmlns="http://www.w3.org/2000/svg" xmlns:xlink="http://www.w3.org/1999/xlink" x="0px"
	 y="0px" width="200px" height="40px" viewBox="0 0 200 40" style="enable-background:new 0 0 200 40;" xml:space="preserve">
<style type="text/css">
	.st0{fill:#59220D;}
</style>
<path class="st0" d="M35.5,9.4c0.3-0.2,0.5-1,0.3-1c-0.3-0.1-0.1,0.4-1.3,0.3c-2.8-0.3-3.7,1.5-4.2,2.2c-0.5,0.7-0.9,1-1,1
	c-0.5-0.6-0.8-1.2-0.5-1.8c0.3-0.9-0.2-1.2-1-1.2C25.3,6,22.2,6.4,22,5.8c-0.3-0.6,0.5-1,0.5-1.4C22.6,4,21.1,3,20.7,3
	c-0.4,0-1.8,1-1.8,1.4c0.1,0.3,0.8,0.8,0.5,1.4C19.1,6.4,16,6,13.6,8.7c-0.8,0.1-1.3,0.4-1,1.2c0.6,1.5-1.6,2.5-2.7,5.1
	c-0.3-0.1-0.9-1-1-2.2c0-1.6-1.7-7.4-3.9-7.5C2.8,5.3,2.1,6.1,2.4,6.5c0.3,0.3,2.3-0.7,2.8,3.1c0.5,3.4,0.4,12.1,6.1,12.7
	c1.3,1.6,2.9,2.8,2.9,3.5c0.1,1.2,0.1,3.1,6.6,3.1c6.4,0,6.5-1.9,6.6-3.1c0-1,3.2-2.9,4.3-5.9c0.3-0.6,1.1-1.6,2.1-2.2
	c0.1,0.3,0.5,1,0.6,0.1c0-0.6,0.4-1.2,1.3-2.6C36.5,13.7,36.8,10.5,35.5,9.4z M33.8,15.6c-0.9,1-1.6,1.2-2,1.3
	c-0.2-1.2-0.6-2.2-1.1-2.9c0.1-0.9,0.4-2.2,0.5-1.9c0.2,0.3,0.8,0.3,0.6-0.1c-0.2-0.3,0.2-1.4,1-1.8c1.2-0.6,2,0.7,2.2,1.6
	C35.3,12.5,34.8,14.4,33.8,15.6z"/>
<g>
	<path class="st0" d="M60.2,27.2c-3.4,1.4-6.4,2.1-9,2.1c-2.8,0-4.9-0.8-6.4-2.3s-2.3-3.7-2.3-6.6c0-4.5,1.5-8.3,4.4-11.4
		c2.9-3.1,6.5-4.7,10.6-4.7c2.5,0,4.8,0.3,6.9,0.9l-1.4,4.4h-1c0.1-0.5,0.2-0.9,0.2-1.2c0-0.9-0.5-1.7-1.5-2.3s-2.3-0.9-4-0.9
		c-2.5,0-4.6,1.1-6.5,3.3c-1.2,1.5-2.2,3.3-3,5.4S46.1,18,46.1,20c0,2.3,0.6,4.1,1.8,5.5c1.2,1.3,2.9,2,5,2c2.4,0,4.9-0.6,7.6-1.8
		L60.2,27.2z"/>
	<path class="st0" d="M74.2,19.9h-0.3c-1.2,2.7-2.7,4.9-4.4,6.6c-1.7,1.7-3.3,2.6-4.8,2.6c-2.3,0-3.4-1.4-3.4-4.3
		c0-3.1,1.2-6.2,3.7-9.2c2.6-3.1,5.7-4.7,9.4-4.7c1.5,0,3.1,0.1,4.8,0.2l-1.2,4.8l-1.6,8c-0.2,1.2-0.4,2.1-0.4,2.4c0,0.7,0.3,1,1,1
		c1.1,0,2.7-1.2,4.8-3.5l-0.3,1.5c-2.4,2.5-4.5,3.8-6.3,3.8c-1.6,0-2.3-0.8-2.3-2.4c0-0.5,0.1-1.5,0.4-2.7L74.2,19.9z M75.5,13.4
		c-1.4-0.6-2.7-0.9-4-0.9c-2,0-3.5,1.2-4.7,3.7c-1.4,2.9-2.1,5.5-2.1,7.9c0,1.7,0.5,2.5,1.5,2.5c0.9,0,2.3-1,4-2.9
		c1.7-1.9,3.3-4.2,4.6-6.6L75.5,13.4z"/>
	<path class="st0" d="M73.6,39.2l2.3-2.4c1,0.4,2.1,0.6,3.2,0.6c1.5,0,2.7-0.5,3.6-1.6c0.8-1,1.5-2.8,1.9-5.2l3.1-18.3h-3.6l1.1-1.2
		h2.7l0-0.2c0.6-3.1,2-5.6,4.2-7.6c2.2-2,4.8-2.9,7.7-2.9c0.9,0,1.8,0.1,2.6,0.3L100,3.1c-1-0.6-2-0.9-3.1-0.9
		c-1.6,0-2.8,0.5-3.6,1.4c-0.8,1-1.4,2.7-1.9,5.2L91,11.1h6l-1.3,1.4c-1.4-0.2-2.7-0.2-4.1-0.2h-0.8l-2.4,13.9
		c-0.7,4.2-2.1,7.5-4.2,9.7c-2.1,2.3-4.8,3.4-8,3.4C75.4,39.4,74.5,39.3,73.6,39.2z"/>
	<path class="st0" d="M108,24.2l-0.2,1.2c-3.4,2.4-6.3,3.6-8.7,3.6c-1.5,0-2.8-0.5-3.7-1.6c-1-1.1-1.4-2.4-1.4-4.1
		c0-3,1.2-5.9,3.5-8.5c2.3-2.7,4.8-4,7.4-4c1,0,1.7,0.3,2.3,1s0.9,1.5,0.9,2.5c0,2.1-1.1,3.8-3.2,5.3s-4.6,2.2-7.5,2.2l0,0.7
		c0,3.1,1.1,4.7,3.4,4.7C102.7,27.2,105.2,26.2,108,24.2z M97.4,20.8c2.4-0.2,4.3-0.8,5.6-1.9c1.4-1,2-2.4,2-4.1
		c0-1.6-0.6-2.5-1.8-2.5c-1.3,0-2.5,0.9-3.7,2.6C98.3,16.7,97.6,18.6,97.4,20.8z"/>
	<path class="st0" d="M119,28.6l2.3-2.4h0.9c1.3,0,2.2-0.4,2.8-1.1c0.6-0.7,1.1-2.2,1.5-4.3l1.6-8.2c0.5-2.4,1.6-4.4,3.3-6
		s3.7-2.4,5.9-2.4c1,0,2.1,0.4,3.4,1.1l-0.8,4h-1c0-0.3,0-0.5,0-0.7c0-2-1-3-3.1-3c-2,0-3.4,1.7-4.1,5.2l-1.5,7.4
		c-0.4,2.2-1.1,3.9-1.8,5.1c-0.8,1.2-2,2.3-3.7,3.2l9,0.1c2.6,0,4.9-0.6,6.8-1.8l-0.2,1.2c-1.5,1.3-2.6,2.2-3.4,2.6
		c-0.8,0.4-1.8,0.6-3,0.6L119,28.6z"/>
	<path class="st0" d="M154.9,24.2l-0.2,1.2c-3.4,2.4-6.3,3.6-8.7,3.6c-1.5,0-2.8-0.5-3.7-1.6c-1-1.1-1.4-2.4-1.4-4.1
		c0-3,1.2-5.9,3.5-8.5c2.3-2.7,4.8-4,7.4-4c1,0,1.7,0.3,2.3,1s0.9,1.5,0.9,2.5c0,2.1-1.1,3.8-3.2,5.3s-4.6,2.2-7.5,2.2l0,0.7
		c0,3.1,1.1,4.7,3.4,4.7C149.6,27.2,152,26.2,154.9,24.2z M144.2,20.8c2.4-0.2,4.3-0.8,5.6-1.9c1.4-1,2-2.4,2-4.1
		c0-1.6-0.6-2.5-1.8-2.5c-1.3,0-2.5,0.9-3.7,2.6C145.2,16.7,144.5,18.6,144.2,20.8z"/>
	<path class="st0" d="M167.8,19.9h-0.3c-1.2,2.7-2.7,4.9-4.4,6.6c-1.7,1.7-3.3,2.6-4.8,2.6c-2.3,0-3.4-1.4-3.4-4.3
		c0-3.1,1.2-6.2,3.7-9.2c2.6-3.1,5.7-4.7,9.4-4.7c1.5,0,3.1,0.1,4.8,0.2l-1.2,4.8l-1.6,8c-0.2,1.2-0.4,2.1-0.4,2.4c0,0.7,0.3,1,1,1
		c1.1,0,2.7-1.2,4.8-3.5l-0.3,1.5c-2.4,2.5-4.5,3.8-6.3,3.8c-1.6,0-2.3-0.8-2.3-2.4c0-0.5,0.1-1.5,0.4-2.7L167.8,19.9z M169.1,13.4
		c-1.4-0.6-2.7-0.9-4-0.9c-2,0-3.5,1.2-4.7,3.7c-1.4,2.9-2.1,5.5-2.1,7.9c0,1.7,0.5,2.5,1.5,2.5c0.9,0,2.3-1,4-2.9
		c1.7-1.9,3.3-4.2,4.6-6.6L169.1,13.4z"/>
	<path class="st0" d="M167.1,39.2l2.3-2.4c1,0.4,2.1,0.6,3.2,0.6c1.5,0,2.7-0.5,3.6-1.6c0.8-1,1.5-2.8,1.9-5.2l3.1-18.3h-3.6
		l1.1-1.2h2.7l0-0.2c0.6-3.1,2-5.6,4.2-7.6c2.2-2,4.8-2.9,7.7-2.9c0.9,0,1.8,0.1,2.6,0.3l-2.3,2.4c-1-0.6-2-0.9-3.1-0.9
		c-1.6,0-2.8,0.5-3.6,1.4c-0.8,1-1.4,2.7-1.9,5.2l-0.5,2.3h6l-1.3,1.4c-1.4-0.2-2.7-0.2-4.1-0.2h-0.8L182,26.2
		c-0.7,4.2-2.1,7.5-4.2,9.7c-2.1,2.3-4.8,3.4-8,3.4C168.9,39.4,168.1,39.3,167.1,39.2z"/>
</g>
</svg>
